<?xml version="1.0" encoding="UTF-8" standalone="no"?>
<!DOCTYPE svg PUBLIC "-//W3C//DTD SVG 1.1//EN"
 "http://www.w3.org/Graphics/SVG/1.1/DTD/svg11.dtd">
<!-- Generated by graphviz version 2.42.3 ()
 -->
<!-- Title: if_state Pages: 1 -->
<svg width="721pt" height="413pt"
 viewBox="0.00 0.00 721.04 413.00" xmlns="http://www.w3.org/2000/svg" xmlns:xlink="http://www.w3.org/1999/xlink">
<g id="graph0" class="graph" transform="scale(1 1) rotate(0) translate(4 409)">
<title>if_state</title>
<polygon fill="white" stroke="transparent" points="-4,4 -4,-409 717.04,-409 717.04,4 -4,4"/>
<!-- IF -->
<g id="node1" class="node">
<title>IF</title>
<ellipse fill="none" stroke="black" cx="128.04" cy="-300" rx="128.08" ry="18"/>
<text text-anchor="middle" x="128.04" y="-296.3" font-family="Times,serif" font-size="14.00">self.nested_ifs.push(If)</text>
</g>
<!-- END -->
<g id="node4" class="node">
<title>END</title>
<ellipse fill="none" stroke="black" cx="364.04" cy="-18" rx="113.18" ry="18"/>
<text text-anchor="middle" x="364.04" y="-14.3" font-family="Times,serif" font-size="14.00">self.nested_ifs.pop()</text>
</g>
<!-- IF&#45;&gt;END -->
<g id="edge2" class="edge">
<title>IF&#45;&gt;END</title>
<path fill="none" stroke="black" d="M118.76,-281.82C104.04,-252.17 78.89,-189.87 98.04,-141 123.73,-75.44 199.56,-45.11 263.71,-31.08"/>
<polygon fill="black" stroke="black" points="264.82,-34.42 273.9,-28.96 263.4,-27.57 264.82,-34.42"/>
<text text-anchor="middle" x="121.04" y="-155.3" font-family="Times,serif" font-size="14.00">#endif</text>
</g>
<!-- consume_all -->
<g id="node6" class="node">
<title>consume_all</title>
<ellipse fill="none" stroke="black" cx="221.04" cy="-105" rx="64.19" ry="18"/>
<text text-anchor="middle" x="221.04" y="-101.3" font-family="Times,serif" font-size="14.00">consume_all</text>
</g>
<!-- IF&#45;&gt;consume_all -->
<g id="edge3" class="edge">
<title>IF&#45;&gt;consume_all</title>
<path fill="none" stroke="black" d="M126.19,-281.94C124.61,-260.61 124.29,-223.44 137.04,-195 148.98,-168.37 172.29,-144.69 191.34,-128.46"/>
<polygon fill="black" stroke="black" points="193.71,-131.04 199.19,-121.98 189.25,-125.65 193.71,-131.04"/>
<text text-anchor="middle" x="201.04" y="-209.3" font-family="Times,serif" font-size="14.00">#elif ... / #else</text>
</g>
<!-- ELIF -->
<g id="node2" class="node">
<title>ELIF</title>
<ellipse fill="none" stroke="black" cx="412.04" cy="-213" rx="137.58" ry="18"/>
<text text-anchor="middle" x="412.04" y="-209.3" font-family="Times,serif" font-size="14.00">self.nested_ifs.push(Elif)</text>
</g>
<!-- ELIF&#45;&gt;END -->
<g id="edge11" class="edge">
<title>ELIF&#45;&gt;END</title>
<path fill="none" stroke="black" d="M390.99,-194.96C385.91,-189.75 381.07,-183.62 378.04,-177 358.56,-134.49 358.76,-78.86 361.11,-46.22"/>
<polygon fill="black" stroke="black" points="364.61,-46.34 361.96,-36.08 357.63,-45.75 364.61,-46.34"/>
<text text-anchor="middle" x="385.04" y="-101.3" font-family="Times,serif" font-size="14.00">#endif</text>
</g>
<!-- ELIF&#45;&gt;consume_all -->
<g id="edge10" class="edge">
<title>ELIF&#45;&gt;consume_all</title>
<path fill="none" stroke="black" d="M317.13,-199.9C272.99,-193.3 228.71,-184.9 222.04,-177 211.99,-165.1 211.62,-147.66 213.81,-133.04"/>
<polygon fill="black" stroke="black" points="217.29,-133.49 215.77,-123.01 210.42,-132.15 217.29,-133.49"/>
<text text-anchor="middle" x="286.04" y="-155.3" font-family="Times,serif" font-size="14.00">#elif ... / #else</text>
</g>
<!-- ELSE -->
<g id="node3" class="node">
<title>ELSE</title>
<ellipse fill="none" stroke="black" cx="517.04" cy="-159" rx="137.58" ry="18"/>
<text text-anchor="middle" x="517.04" y="-155.3" font-family="Times,serif" font-size="14.00">self.nested_ifs.push(Else)</text>
</g>
<!-- ELSE&#45;&gt;END -->
<g id="edge12" class="edge">
<title>ELSE&#45;&gt;END</title>
<path fill="none" stroke="black" d="M498.28,-140.96C471.32,-116.47 421.5,-71.2 390.72,-43.24"/>
<polygon fill="black" stroke="black" points="392.71,-40.32 382.95,-36.18 388,-45.5 392.71,-40.32"/>
<text text-anchor="middle" x="501.04" y="-101.3" font-family="Times,serif" font-size="14.00">#endif</text>
</g>
<!-- start -->
<g id="node5" class="node">
<title>start</title>
<ellipse fill="none" stroke="black" cx="352.04" cy="-387" rx="35.19" ry="18"/>
<text text-anchor="middle" x="352.04" y="-383.3" font-family="Times,serif" font-size="14.00">start</text>
</g>
<!-- start&#45;&gt;IF -->
<g id="edge1" class="edge">
<title>start&#45;&gt;IF</title>
<path fill="none" stroke="black" d="M324.57,-375.58C288.65,-361.95 225.01,-337.8 179.89,-320.67"/>
<polygon fill="black" stroke="black" points="180.86,-317.3 170.27,-317.03 178.38,-323.85 180.86,-317.3"/>
<text text-anchor="middle" x="272.04" y="-339.8" font-family="Times,serif" font-size="14.00">#if 1</text>
</g>
<!-- consume_if -->
<g id="node7" class="node">
<title>consume_if</title>
<ellipse fill="none" stroke="black" cx="529.04" cy="-300" rx="59.59" ry="18"/>
<text text-anchor="middle" x="529.04" y="-296.3" font-family="Times,serif" font-size="14.00">consume_if</text>
</g>
<!-- start&#45;&gt;consume_if -->
<g id="edge5" class="edge">
<title>start&#45;&gt;consume_if</title>
<path fill="none" stroke="black" d="M377.02,-374C406.2,-359.99 454.85,-336.63 489.25,-320.11"/>
<polygon fill="black" stroke="black" points="491.04,-323.13 498.54,-315.64 488.01,-316.82 491.04,-323.13"/>
<text text-anchor="middle" x="470.04" y="-339.8" font-family="Times,serif" font-size="14.00">#if 0</text>
</g>
<!-- consume_all&#45;&gt;END -->
<g id="edge4" class="edge">
<title>consume_all&#45;&gt;END</title>
<path fill="none" stroke="black" d="M246.78,-88.37C263.14,-78.46 284.79,-65.41 304.04,-54 311.42,-49.62 319.33,-44.98 326.91,-40.55"/>
<polygon fill="black" stroke="black" points="328.73,-43.54 335.61,-35.48 325.2,-37.49 328.73,-43.54"/>
<text text-anchor="middle" x="327.04" y="-57.8" font-family="Times,serif" font-size="14.00">#endif</text>
</g>
<!-- consume_if&#45;&gt;ELIF -->
<g id="edge7" class="edge">
<title>consume_if&#45;&gt;ELIF</title>
<path fill="none" stroke="black" d="M507.31,-283.21C489.38,-270.19 463.71,-251.54 443.53,-236.88"/>
<polygon fill="black" stroke="black" points="445.41,-233.91 435.26,-230.87 441.29,-239.58 445.41,-233.91"/>
<text text-anchor="middle" x="503.54" y="-252.8" font-family="Times,serif" font-size="14.00">#elif 1</text>
</g>
<!-- consume_if&#45;&gt;ELSE -->
<g id="edge8" class="edge">
<title>consume_if&#45;&gt;ELSE</title>
<path fill="none" stroke="black" d="M541.04,-282.21C554.49,-261.16 572.75,-224.27 559.04,-195 557.18,-191.04 554.63,-187.36 551.7,-184.01"/>
<polygon fill="black" stroke="black" points="553.89,-181.26 544.3,-176.76 548.99,-186.26 553.89,-181.26"/>
<text text-anchor="middle" x="576.04" y="-252.8" font-family="Times,serif" font-size="14.00">#else</text>
</g>
<!-- consume_if&#45;&gt;END -->
<g id="edge9" class="edge">
<title>consume_if&#45;&gt;END</title>
<path fill="none" stroke="black" d="M565.11,-285.41C576.76,-279.91 589.19,-272.76 599.04,-264 644.05,-223.95 689.35,-191.21 656.04,-141 613.13,-76.33 528.68,-45.89 461.59,-31.58"/>
<polygon fill="black" stroke="black" points="461.9,-28.08 451.4,-29.51 460.5,-34.93 461.9,-28.08"/>
<text text-anchor="middle" x="690.04" y="-155.3" font-family="Times,serif" font-size="14.00">#endif</text>
</g>
<!-- consume_if&#45;&gt;consume_if -->
<g id="edge6" class="edge">
<title>consume_if&#45;&gt;consume_if</title>
<path fill="none" stroke="black" d="M583.21,-307.77C596.73,-307.22 606.83,-304.63 606.83,-300 606.83,-296.63 601.5,-294.35 593.4,-293.14"/>
<polygon fill="black" stroke="black" points="593.48,-289.63 583.21,-292.23 592.86,-296.6 593.48,-289.63"/>
<text text-anchor="middle" x="633.33" y="-296.3" font-family="Times,serif" font-size="14.00">#elif 0</text>
</g>
</g>
</svg>
